<?xml version="1.0"?>
<svg xmlns="http://www.w3.org/2000/svg" viewBox="0 0 512 512" width="512" height="512"><g id="Out_line" data-name="Out line"><path d="M456,320h-8.022A39.7896,39.7896,0,0,0,456,296V216a39.79015,39.79015,0,0,0-8.022-24H448a40.04584,40.04584,0,0,0,40-40V72a40.04584,40.04584,0,0,0-40-40H200a40.04584,40.04584,0,0,0-40,40v56h16V104H472v16H208v16H472v16a24.03748,24.03748,0,0,1-18.76465,23.418l9.91992-19.83985-14.31054-7.15624L435.05566,176H420.94434l10.21093-20.42188-14.31054-7.15624L403.05566,176H388.94434l10.21093-20.42188-14.31054-7.15624L371.05566,176H356.94434l10.21093-20.42188-14.31054-7.15624L339.05566,176H320v16h19.05566l13.78907,27.57812,14.31054-7.15624L356.94434,192h14.11132l13.78907,27.57812,14.31054-7.15624L388.94434,192h14.11132l13.78907,27.57812,14.31054-7.15624L421.23535,192.582A24.03748,24.03748,0,0,1,440,216v16H352v16h88v16H368v16h72v16a24.03769,24.03769,0,0,1-18.76465,23.418l9.91992-19.83985-14.31054-7.15624L403.05566,320H388.94434l10.21093-20.42188-14.31054-7.15624L371.05566,320H368v16h11.05566l13.78907,27.57812,14.31054-7.15624L396.94434,336h14.11132l13.78907,27.57812,14.31054-7.15624L428.94434,336h14.11132l13.78907,27.57812,14.31054-7.15624L461.23535,336.582A24.03769,24.03769,0,0,1,480,360v16H352v16H480v16H336v16H480v16a24.03769,24.03769,0,0,1-18.76465,23.418l9.91992-19.83985-14.31054-7.15624L443.05566,464H428.94434l10.21093-20.42188-14.31054-7.15624L411.05566,464H396.94434l10.21093-20.42188-14.31054-7.15624L379.05566,464H364.94434l10.21093-20.42188-14.31054-7.15624L347.05566,464H332.94434l10.21093-20.42188-14.31054-7.15624L315.05566,464H280v16H456a40.04584,40.04584,0,0,0,40-40V360A40.04584,40.04584,0,0,0,456,320ZM176,88V72a23.91245,23.91245,0,0,1,6.73364-16.644l10.11109,20.22216,14.31054-7.15624L197.03906,48.18921A24.09056,24.09056,0,0,1,200,48h11.05566l13.78907,27.57812,14.31054-7.15624L228.94434,48h14.11132l13.78907,27.57812,14.31054-7.15624L260.94434,48h14.11132l13.78907,27.57812,14.31054-7.15624L292.94434,48h14.11132l13.78907,27.57812,14.31054-7.15624L324.94434,48h14.11132l13.78907,27.57812,14.31054-7.15624L356.94434,48h14.11132l13.78907,27.57812,14.31054-7.15624L388.94434,48h14.11132l13.78907,27.57812,14.31054-7.15624L420.94434,48h14.11132l13.78907,27.57812,14.31054-7.15624L453.23535,48.582A24.03748,24.03748,0,0,1,472,72V88Z"/><path d="M352,312c0-92.63574-75.36426-168-168-168S16,219.36426,16,312,91.36426,480,184,480,352,404.63574,352,312Zm-66.17578,90.50977-11.31445,11.3125,11.11132,11.11181a153.008,153.008,0,0,1-18.82421,14.47412l-7.86817-13.6289-13.85742,8,7.88525,13.6582a151.10191,151.10191,0,0,1-21.94262,9.11133l-4.08716-15.25293-15.45508,4.14062,4.08887,15.25928A151.58611,151.58611,0,0,1,192,463.78955V448H176v15.78955a151.58611,151.58611,0,0,1-23.56055-3.09375l4.08887-15.25928-15.45508-4.14062-4.08716,15.25293a151.10191,151.10191,0,0,1-21.94262-9.11133l7.88525-13.6582-13.85742-8-7.86817,13.6289a152.963,152.963,0,0,1-18.82373-14.47363l11.11084-11.11035-11.3125-11.31445L71.06592,413.62109A152.98152,152.98152,0,0,1,56.592,394.79688l13.62866-7.86817-8-13.85742-13.6582,7.88525a151.11955,151.11955,0,0,1-9.11108-21.94238l15.25268-4.0874-4.14062-15.45508L35.3042,343.56055A151.58243,151.58243,0,0,1,32.21021,320H48V304H32.21021a151.58243,151.58243,0,0,1,3.094-23.56055l15.25928,4.08887,4.14062-15.45508-15.25268-4.0874a151.108,151.108,0,0,1,9.11108-21.94238l13.6582,7.88525,8-13.85742L56.592,229.20312a152.9611,152.9611,0,0,1,14.47339-18.82373l11.11035,11.11084,11.31445-11.3125L82.37891,199.06592A152.98152,152.98152,0,0,1,101.20312,184.592l7.86817,13.62866,13.85742-8-7.88525-13.6582a151.0997,151.0997,0,0,1,21.94262-9.11108l4.08716,15.25268,15.45508-4.14062-4.08887-15.25928A151.58625,151.58625,0,0,1,176,160.21021V176h16V160.21021a151.58625,151.58625,0,0,1,23.56055,3.094l-4.08887,15.25928,15.45508,4.14062,4.08716-15.25268a151.0997,151.0997,0,0,1,21.94262,9.11108l-7.88525,13.6582,13.85742,8,7.86817-13.62866a152.9611,152.9611,0,0,1,18.82373,14.47339l-11.11084,11.11035,11.3125,11.31445,11.11181-11.11132A152.98152,152.98152,0,0,1,311.408,229.20312l-13.62866,7.86817,8,13.85742,13.6582-7.88525a151.108,151.108,0,0,1,9.11108,21.94238l-15.25268,4.0874,4.14062,15.45508,15.25928-4.08887A151.58243,151.58243,0,0,1,335.78979,304H320v16h15.78979a151.58243,151.58243,0,0,1-3.094,23.56055l-15.25928-4.08887-4.14062,15.45508,15.25268,4.0874a151.11955,151.11955,0,0,1-9.11108,21.94238l-13.6582-7.88525-8,13.85742,13.62866,7.86817a152.9611,152.9611,0,0,1-14.47339,18.82373Z"/><path d="M272,312a88,88,0,1,0-88,88A88.09957,88.09957,0,0,0,272,312Zm-49.91016,12.37891a83.72641,83.72641,0,0,1,33.8396-9.59668A71.55461,71.55461,0,0,1,243.8252,352.0127,83.64866,83.64866,0,0,1,222.08984,324.37891Zm18.43726-56.89356a83.41442,83.41442,0,0,1-32.97925,12.11035,83.79206,83.79206,0,0,1,1.33789-35.15844A72.30512,72.30512,0,0,1,240.5271,267.48535ZM193.34961,240.6272a99.74981,99.74981,0,0,0,.1582,49.64721,8.00052,8.00052,0,0,0,7.73828,5.98536c.15918,0,.32032-.00489.48145-.01465a99.4702,99.4702,0,0,0,47.26831-15.19678,71.40819,71.40819,0,0,1,5.7749,17.77832,99.73969,99.73969,0,0,0-47.178,15.50244,8.00046,8.00046,0,0,0-3.13769,9.668,99.65606,99.65606,0,0,0,29.03857,40.22022,72.37778,72.37778,0,0,1-15.09936,11.021,99.82745,99.82745,0,0,0-29.31519-40.0791,7.99841,7.99841,0,0,0-10.16015.002,99.424,99.424,0,0,0-29.30249,40.083,72.36569,72.36569,0,0,1-15.09815-11.01562,99.9987,99.9987,0,0,0,29.02661-40.23243,7.99955,7.99955,0,0,0-3.13769-9.667,99.42957,99.42957,0,0,0-47.17969-15.49267,71.42144,71.42144,0,0,1,5.77148-17.77735,100.018,100.018,0,0,0,47.27442,15.186q.2417.01464.48047.01465a7.99971,7.99971,0,0,0,7.73828-5.98633,99.41733,99.41733,0,0,0,.14843-49.645,70.00585,70.00585,0,0,1,18.709-.00122ZM124.17773,352.0166a71.54875,71.54875,0,0,1-12.10693-37.23144,83.40267,83.40267,0,0,1,33.83936,9.59179,83.96486,83.96486,0,0,1-21.73243,27.63965Zm34.93335-107.57812a83.38689,83.38689,0,0,1,1.344,35.15625,84.10872,84.10872,0,0,1-32.98291-12.1084A72.30644,72.30644,0,0,1,159.11108,244.43848Zm5.31519,136.835A83.35,83.35,0,0,1,184,352.05078a83.82885,83.82885,0,0,1,19.57422,29.22266,71.62407,71.62407,0,0,1-39.148,0Z"/><circle cx="184" cy="312" r="8"/><path d="M90.42578,357.42285,76.03516,364.417A119.97709,119.97709,0,0,0,184,432V416a103.9808,103.9808,0,0,1-93.57422-58.57715Z"/><path d="M277.57422,266.57715l14.39062-6.99414A119.97709,119.97709,0,0,0,184,192v16a103.9808,103.9808,0,0,1,93.57422,58.57715Z"/><path d="M96.28027,256.10742a104.2594,104.2594,0,0,1,42.29688-37.68164L131.583,204.03516A119.97709,119.97709,0,0,0,64,312H80A103.63662,103.63662,0,0,1,96.28027,256.10742Z"/><path d="M288,312a103.9808,103.9808,0,0,1-58.57715,93.57422l6.99414,14.39062A119.97709,119.97709,0,0,0,304,312Z"/></g></svg>
